<mxfile host="65bd71144e">
    <diagram id="Q_KET9dB85B3Kg3tcauO" name="Page-1">
        <mxGraphModel dx="900" dy="554" grid="1" gridSize="10" guides="1" tooltips="1" connect="1" arrows="1" fold="1" page="1" pageScale="1" pageWidth="850" pageHeight="1100" background="#000000" math="0" shadow="0">
            <root>
                <mxCell id="0"/>
                <mxCell id="1" parent="0"/>
                <mxCell id="8" value="Course" style="rounded=1;whiteSpace=wrap;html=1;fillColor=default;" parent="1" vertex="1">
                    <mxGeometry x="210" y="100" width="90" height="60" as="geometry"/>
                </mxCell>
                <mxCell id="12" value="Student" style="rounded=1;whiteSpace=wrap;html=1;fillColor=default;" parent="1" vertex="1">
                    <mxGeometry x="520" y="100" width="80" height="60" as="geometry"/>
                </mxCell>
                <mxCell id="30" value="" style="edgeStyle=none;html=1;" parent="1" source="13" target="29" edge="1">
                    <mxGeometry relative="1" as="geometry"/>
                </mxCell>
                <mxCell id="13" value="Excercise" style="rounded=1;whiteSpace=wrap;html=1;fillColor=default;" parent="1" vertex="1">
                    <mxGeometry x="210" y="369" width="90" height="60" as="geometry"/>
                </mxCell>
                <mxCell id="14" value="&lt;u&gt;User Account&lt;/u&gt;" style="rounded=1;whiteSpace=wrap;html=1;fillColor=default;" parent="1" vertex="1">
                    <mxGeometry x="520" y="360" width="90" height="60" as="geometry"/>
                </mxCell>
                <mxCell id="21" value="Have" style="rhombus;whiteSpace=wrap;html=1;" parent="1" vertex="1">
                    <mxGeometry x="530" y="242" width="70" height="40" as="geometry"/>
                </mxCell>
                <mxCell id="22" value="Have" style="rhombus;whiteSpace=wrap;html=1;" parent="1" vertex="1">
                    <mxGeometry x="220" y="230" width="70" height="40" as="geometry"/>
                </mxCell>
                <mxCell id="23" value="" style="endArrow=none;html=1;strokeColor=#FFFFFF;" parent="1" edge="1">
                    <mxGeometry width="50" height="50" relative="1" as="geometry">
                        <mxPoint x="254.6" y="220" as="sourcePoint"/>
                        <mxPoint x="254.6" y="160" as="targetPoint"/>
                    </mxGeometry>
                </mxCell>
                <mxCell id="29" value="" style="shape=singleArrow;whiteSpace=wrap;html=1;arrowWidth=0.4;arrowSize=0.4;fillColor=#FFFFFF;rounded=1;rotation=-90;fontColor=#333333;strokeColor=#666666;" parent="1" vertex="1">
                    <mxGeometry x="211.25" y="301.25" width="87.5" height="20" as="geometry"/>
                </mxCell>
                <mxCell id="32" value="" style="shape=singleArrow;whiteSpace=wrap;html=1;arrowWidth=0.4;arrowSize=0.4;fillColor=#FFFFFF;rounded=1;rotation=-90;" parent="1" vertex="1">
                    <mxGeometry x="535.63" y="304.38" width="58.75" height="20" as="geometry"/>
                </mxCell>
                <mxCell id="33" value="" style="shape=singleArrow;whiteSpace=wrap;html=1;arrowWidth=0.3599999999999966;arrowSize=0.42761904761904795;fillColor=#FFFFFF;rounded=1;rotation=90;" parent="1" vertex="1">
                    <mxGeometry x="526.25" y="186.25" width="77.5" height="20" as="geometry"/>
                </mxCell>
                <mxCell id="34" value="&lt;u&gt;ID&lt;/u&gt;" style="ellipse;whiteSpace=wrap;html=1;fillColor=default;rounded=1;" parent="1" vertex="1">
                    <mxGeometry x="520" width="75" height="30" as="geometry"/>
                </mxCell>
                <mxCell id="36" value="&lt;u&gt;ID&lt;/u&gt;" style="ellipse;whiteSpace=wrap;html=1;fillColor=default;rounded=1;" parent="1" vertex="1">
                    <mxGeometry x="215" width="80" height="30" as="geometry"/>
                </mxCell>
                <mxCell id="38" value="" style="endArrow=none;html=1;strokeWidth=7;strokeColor=#FFFFFF;" parent="1" edge="1">
                    <mxGeometry width="50" height="50" relative="1" as="geometry">
                        <mxPoint x="557.1" y="100" as="sourcePoint"/>
                        <mxPoint x="557.1" y="40" as="targetPoint"/>
                    </mxGeometry>
                </mxCell>
                <mxCell id="41" value="&lt;u&gt;username&lt;/u&gt;" style="ellipse;whiteSpace=wrap;html=1;" parent="1" vertex="1">
                    <mxGeometry x="440" y="440" width="70" height="50" as="geometry"/>
                </mxCell>
                <mxCell id="43" value="&lt;u&gt;student_id&lt;/u&gt;" style="ellipse;whiteSpace=wrap;html=1;" parent="1" vertex="1">
                    <mxGeometry x="603.75" y="460" width="70" height="50" as="geometry"/>
                </mxCell>
                <mxCell id="45" value="password" style="ellipse;whiteSpace=wrap;html=1;" parent="1" vertex="1">
                    <mxGeometry x="522.5" y="480" width="70" height="50" as="geometry"/>
                </mxCell>
                <mxCell id="47" value="&lt;u&gt;id&lt;/u&gt;" style="ellipse;whiteSpace=wrap;html=1;" parent="1" vertex="1">
                    <mxGeometry x="380" y="365" width="70" height="50" as="geometry"/>
                </mxCell>
                <mxCell id="51" value="last_name" style="ellipse;whiteSpace=wrap;html=1;" parent="1" vertex="1">
                    <mxGeometry x="660" y="140" width="70" height="50" as="geometry"/>
                </mxCell>
                <mxCell id="52" value="first_name" style="ellipse;whiteSpace=wrap;html=1;" parent="1" vertex="1">
                    <mxGeometry x="640" y="20" width="70" height="50" as="geometry"/>
                </mxCell>
                <mxCell id="56" value="" style="endArrow=none;html=1;entryX=0;entryY=1;entryDx=0;entryDy=0;strokeColor=#FFFFFF;" edge="1" parent="1" target="12">
                    <mxGeometry width="50" height="50" relative="1" as="geometry">
                        <mxPoint x="470" y="221.25" as="sourcePoint"/>
                        <mxPoint x="520" y="171.25" as="targetPoint"/>
                    </mxGeometry>
                </mxCell>
                <mxCell id="57" value="" style="endArrow=none;html=1;entryX=1;entryY=1;entryDx=0;entryDy=0;fillColor=#eeeeee;strokeColor=#FFFFFF;" edge="1" parent="1" target="8">
                    <mxGeometry width="50" height="50" relative="1" as="geometry">
                        <mxPoint x="360" y="220" as="sourcePoint"/>
                        <mxPoint x="350" y="160" as="targetPoint"/>
                    </mxGeometry>
                </mxCell>
                <mxCell id="58" value="" style="endArrow=none;html=1;entryX=0;entryY=0.8;entryDx=0;entryDy=0;entryPerimeter=0;strokeWidth=7;strokeColor=#FFFFFF;" edge="1" parent="1" target="52">
                    <mxGeometry width="50" height="50" relative="1" as="geometry">
                        <mxPoint x="590" y="100" as="sourcePoint"/>
                        <mxPoint x="640" y="38.75" as="targetPoint"/>
                        <Array as="points"/>
                    </mxGeometry>
                </mxCell>
                <mxCell id="59" value="" style="endArrow=none;html=1;exitX=1;exitY=1;exitDx=0;exitDy=0;strokeWidth=6;strokeColor=#FFFFFF;" edge="1" parent="1" source="12" target="51">
                    <mxGeometry width="50" height="50" relative="1" as="geometry">
                        <mxPoint x="600" y="110" as="sourcePoint"/>
                        <mxPoint x="650" y="70" as="targetPoint"/>
                        <Array as="points"/>
                    </mxGeometry>
                </mxCell>
                <mxCell id="60" value="Student_Courses" style="rhombus;whiteSpace=wrap;html=1;" vertex="1" parent="1">
                    <mxGeometry x="363" y="180" width="117" height="80" as="geometry"/>
                </mxCell>
                <mxCell id="61" value="" style="endArrow=none;html=1;entryX=0;entryY=1;entryDx=0;entryDy=0;strokeWidth=7;strokeColor=#FFFFFF;" edge="1" parent="1" target="14">
                    <mxGeometry width="50" height="50" relative="1" as="geometry">
                        <mxPoint x="476.25" y="440" as="sourcePoint"/>
                        <mxPoint x="526.25" y="390" as="targetPoint"/>
                    </mxGeometry>
                </mxCell>
                <mxCell id="62" value="" style="endArrow=none;html=1;entryX=0.356;entryY=1.067;entryDx=0;entryDy=0;entryPerimeter=0;strokeWidth=7;strokeColor=#FFFFFF;" edge="1" parent="1" target="14">
                    <mxGeometry width="50" height="50" relative="1" as="geometry">
                        <mxPoint x="550" y="470" as="sourcePoint"/>
                        <mxPoint x="530" y="430" as="targetPoint"/>
                    </mxGeometry>
                </mxCell>
                <mxCell id="63" value="" style="endArrow=none;html=1;entryX=0.867;entryY=1.017;entryDx=0;entryDy=0;entryPerimeter=0;exitX=0.375;exitY=-0.06;exitDx=0;exitDy=0;exitPerimeter=0;strokeWidth=7;strokeColor=#FFFFFF;" edge="1" parent="1" source="43" target="14">
                    <mxGeometry width="50" height="50" relative="1" as="geometry">
                        <mxPoint x="560" y="480" as="sourcePoint"/>
                        <mxPoint x="562.04" y="434.02" as="targetPoint"/>
                    </mxGeometry>
                </mxCell>
                <mxCell id="64" value="" style="endArrow=none;html=1;entryX=0.867;entryY=1.017;entryDx=0;entryDy=0;entryPerimeter=0;exitX=0;exitY=0.5;exitDx=0;exitDy=0;strokeWidth=7;strokeColor=#FFFFFF;" edge="1" parent="1" source="14">
                    <mxGeometry width="50" height="50" relative="1" as="geometry">
                        <mxPoint x="481.97" y="416.99" as="sourcePoint"/>
                        <mxPoint x="450" y="381.01" as="targetPoint"/>
                        <Array as="points"/>
                    </mxGeometry>
                </mxCell>
                <mxCell id="65" value="" style="endArrow=none;html=1;strokeWidth=7;strokeColor=#FFFFFF;" edge="1" parent="1">
                    <mxGeometry width="50" height="50" relative="1" as="geometry">
                        <mxPoint x="200" y="130" as="sourcePoint"/>
                        <mxPoint x="90" y="130" as="targetPoint"/>
                        <Array as="points">
                            <mxPoint x="150.4" y="130"/>
                        </Array>
                    </mxGeometry>
                </mxCell>
                <mxCell id="66" value="&lt;u&gt;Name&lt;/u&gt;" style="ellipse;whiteSpace=wrap;html=1;" vertex="1" parent="1">
                    <mxGeometry y="100" width="90" height="60" as="geometry"/>
                </mxCell>
                <mxCell id="69" value="" style="endArrow=none;html=1;strokeWidth=7;strokeColor=#FFFFFF;" edge="1" parent="1">
                    <mxGeometry width="50" height="50" relative="1" as="geometry">
                        <mxPoint x="253.99999999999991" y="100" as="sourcePoint"/>
                        <mxPoint x="253.99999999999991" y="40" as="targetPoint"/>
                    </mxGeometry>
                </mxCell>
            </root>
        </mxGraphModel>
    </diagram>
</mxfile>